<?xml version="1.0" standalone="no"?>
<!DOCTYPE svg PUBLIC "-//W3C//DTD SVG 20010904//EN"
 "http://www.w3.org/TR/2001/REC-SVG-20010904/DTD/svg10.dtd">
<svg version="1.0" xmlns="http://www.w3.org/2000/svg"
 width="162.000000pt" height="116.000000pt" viewBox="0 0 162.000000 116.000000"
 preserveAspectRatio="xMidYMid meet">
<metadata>
Created by potrace 1.10, written by Peter Selinger 2001-2011
</metadata>
<g transform="translate(0.000000,116.000000) scale(0.100000,-0.100000)"
fill="#FFF" stroke="none">
<path d="M316 978 c-17 -10 -17 -12 12 -23 17 -8 35 -23 41 -34 11 -20 11 -20
-18 -3 -22 12 -36 14 -57 7 -41 -15 -42 -35 -2 -36 18 0 26 -3 18 -6 -30 -11
-50 -37 -50 -65 l0 -29 26 20 c28 22 60 29 49 11 -4 -6 -11 -8 -16 -5 -13 9
-59 -41 -59 -64 0 -18 -3 -19 -26 -11 -21 8 -29 6 -50 -15 -13 -13 -24 -34
-24 -46 l0 -22 23 21 c25 23 62 33 39 10 -7 -7 -12 -23 -12 -36 0 -23 0 -23
25 5 25 28 25 28 17 3 -10 -30 -5 -60 11 -60 6 0 3 -6 -8 -14 -15 -11 -19 -31
-23 -120 -2 -58 -1 -106 4 -105 5 0 24 19 43 42 18 23 80 92 138 154 l104 111
94 -59 93 -60 102 66 102 67 54 -36 54 -36 37 20 c42 22 130 27 166 9 12 -6
37 -25 56 -43 l34 -31 -7 30 c-4 17 -15 46 -24 65 l-17 35 -90 6 -90 5 83 2
c45 1 82 6 82 11 0 5 -8 18 -17 30 -16 19 -33 22 -163 30 l-145 8 110 3 c61 1
120 5 133 9 l24 6 -26 24 c-24 23 -37 25 -154 31 l-127 6 103 8 c56 5 102 12
102 16 0 4 -35 23 -77 43 -89 41 -206 63 -284 54 -63 -8 -189 -47 -189 -58 0
-5 51 -10 113 -11 l112 -2 -102 -3 c-57 -2 -103 -6 -103 -9 0 -3 5 -14 11 -25
5 -11 9 -27 7 -36 -2 -12 -7 -10 -23 8 -15 18 -15 20 -2 10 21 -17 22 -9 2 29
-27 52 -74 61 -117 22 -17 -14 -19 -13 -29 17 -6 18 -24 38 -40 46 -33 18 -29
17 -53 3z m186 -97 c-10 -6 -10 -10 3 -21 8 -7 15 -20 14 -29 0 -11 -3 -9 -9
7 -5 12 -16 25 -25 28 -23 9 -18 24 8 24 15 0 18 -3 9 -9z m-9 -63 c12 -13 25
-22 30 -20 4 1 7 -2 7 -8 0 -16 -12 -12 -38 13 l-25 22 12 -22 c6 -12 11 -31
11 -42 0 -16 7 -21 28 -22 21 -1 19 -3 -12 -9 -21 -4 -47 -5 -57 -3 -14 4 -18
-2 -22 -34 l-4 -38 -1 43 c-2 31 2 42 13 42 18 0 19 5 3 33 -11 21 -11 21 -19
2 -7 -19 -8 -19 -8 3 -1 33 17 27 42 -15 17 -29 23 -34 25 -20 5 27 -6 63 -24
81 -14 15 -14 16 0 16 9 0 26 -10 39 -22z m-123 -23 c0 -8 -7 -15 -16 -15 -14
0 -14 3 -4 15 7 8 14 15 16 15 2 0 4 -7 4 -15z m-50 -13 c0 -5 -7 -17 -16 -28
-8 -10 -14 -14 -11 -9 2 6 7 18 10 28 7 17 17 23 17 9z m47 -38 c-3 -3 -12 -4
-19 -1 -8 3 -5 6 6 6 11 1 17 -2 13 -5z m3 -60 c0 -14 -3 -14 -15 -4 -8 7 -15
14 -15 16 0 2 7 4 15 4 8 0 15 -7 15 -16z m-33 -21 c-4 -3 -10 -3 -14 0 -3 4
0 7 7 7 7 0 10 -3 7 -7z m-37 -43 c0 -13 -1 -13 -10 0 -8 12 -10 12 -10 1 0
-8 -3 -12 -6 -8 -3 3 -3 15 1 28 6 17 9 19 16 8 5 -8 9 -21 9 -29z m69 -35
l-1 -50 -13 35 c-17 43 -18 60 -4 40 8 -11 9 -6 5 20 -4 25 -3 31 4 20 5 -8 9
-37 9 -65z m-32 48 c-4 -3 -7 0 -7 7 0 7 3 10 7 7 3 -4 3 -10 0 -14z m100 -25
c-3 -7 -5 -2 -5 12 0 14 2 19 5 13 2 -7 2 -19 0 -25z m-130 -40 c-3 -7 -5 -2
-5 12 0 14 2 19 5 13 2 -7 2 -19 0 -25z m10 -75 c-3 -10 -5 -2 -5 17 0 19 2
27 5 18 2 -10 2 -26 0 -35z"/>
<path d="M806 596 l-99 -64 -91 59 -91 59 -64 -67 c-118 -125 -211 -235 -211
-251 0 -9 18 2 48 31 85 78 184 117 302 117 93 0 151 -16 282 -81 89 -43 109
-49 164 -49 53 0 67 4 93 26 35 29 41 72 15 98 -20 20 -34 12 -27 -14 6 -24
-22 -60 -48 -60 -24 0 -77 64 -84 102 -4 18 -2 46 4 61 6 16 11 30 11 32 0 6
-88 65 -97 65 -4 0 -53 -29 -107 -64z"/>
<path d="M1100 603 c-58 -23 -78 -89 -41 -134 l20 -24 -2 29 c-4 60 84 75 120
20 35 -53 15 -129 -41 -163 -75 -45 -176 -34 -307 33 -104 54 -176 76 -244 76
-95 0 -212 -47 -283 -113 -44 -42 -40 -48 16 -21 105 50 250 56 382 15 36 -12
108 -45 160 -74 52 -30 112 -60 134 -67 104 -34 242 39 281 149 45 129 -23
268 -138 277 -23 2 -49 1 -57 -3z"/>
<path d="M473 299 c-72 -9 -157 -47 -197 -88 l-28 -30 63 27 c56 23 78 27 169
27 l105 0 95 -48 c52 -26 137 -70 188 -97 137 -72 230 -85 326 -45 63 27 116
110 116 183 0 23 -1 23 -25 -6 -45 -54 -111 -85 -192 -90 -85 -5 -118 6 -238
78 -124 76 -248 104 -382 89z"/>
</g>
</svg>
